#!OML:ASF H:\Martial Arts Walks\Project 1\Capture day 1\Session 1\male.ASF
:FULLY-SPECIFIED
:DEGREES
1077
root -1.74819 14.2131 12.5308 9.18609 32.9929 10.3534
lowerback 12.8758 2.62886 -13.3791
upperback -1.26849 1.35628 -0.453337
thorax -9.01082 1.30521 6.78211
lowerneck 1.13416 -12.055 -13.751
upperneck 6.4797 -16.5589 8.75262
head 3.62043 -8.34927 4.07395
rclavicle -1.71949e-014 -2.3059e-014
rhumerus -1.57383 11.9008 -57.6896
rradius 36.1262
rwrist 13.9571
rhand -16.747 -12.4872
rfingers 7.12502
rthumb 9.47944 -42.254
lclavicle -1.71949e-014 -2.3059e-014
lhumerus -72.8931 -16.4711 102.588
lradius 104.784
lwrist 47.8638
lhand 1.69958 39.7707
lfingers 7.12502
lthumb 27.2172 67.8273
rfemur -59.6977 -29.0105 5.77487
rtibia 72.158
rfoot -11.7569 7.69524
rtoes -5.68676
lfemur 11.417 6.83067 -8.49094
ltibia 30.3444
lfoot -15.2728 29.3456
ltoes -32.6881
1078
root -1.74637 14.2289 12.4812 8.91861 32.5762 10.3864
lowerback 12.8108 2.79129 -13.5777
upperback -1.21873 1.5564 -0.43736
thorax -8.97098 1.4066 6.86941
lowerneck 1.07674 -12.0398 -13.7844
upperneck 6.40686 -16.5343 8.8223
head 3.61343 -8.33453 4.09937
rclavicle 4.35338e-014 -8.34896e-015
rhumerus -1.53075 11.4816 -57.8325
rradius 35.871
rwrist 14.2789
rhand -16.8981 -12.4896
rfingers 7.12502
rthumb 9.3337 -42.2629
lclavicle 4.35338e-014 -8.34896e-015
lhumerus -72.2696 -16.804 102.687
lradius 104.338
lwrist 47.8748
lhand 2.17764 40.0865
lfingers 7.12502
lthumb 27.6745 68.0706
rfemur -59.252 -28.5788 5.43322
rtibia 71.8802
rfoot -11.2035 8.83748
rtoes -3.53963
lfemur 11.6442 6.82058 -8.87281
ltibia 30.4202
lfoot -15.2895 29.6162
ltoes -32.2284
1079
root -1.74615 14.2428 12.4361 8.62012 32.1564 10.3596
lowerback 12.7813 2.93418 -13.7208
upperback -1.16795 1.73541 -0.401409
thorax -8.94513 1.49641 6.95175
lowerneck 1.0087 -12.0099 -13.7806
upperneck 6.26464 -16.4806 8.83132
head 3.5756 -8.30543 4.10587
rclavicle 8.29926e-015 -1.43125e-014
rhumerus -1.43062 11.2007 -57.963
rradius 35.5028
rwrist 15.0122
rhand -17.1789 -12.411
rfingers 7.12502
rthumb 9.06271 -42.1963
lclavicle 8.29926e-015 -1.43125e-014
lhumerus -71.7687 -17.0187 102.82
lradius 103.944
lwrist 47.572
lhand 2.73445 40.3295
lfingers 7.12502
lthumb 28.2068 68.2269
rfemur -58.8026 -28.0524 5.13663
rtibia 71.495
rfoot -10.5969 9.86276
rtoes -1.32573
lfemur 11.8871 6.82706 -9.1732
ltibia 30.487
lfoot -15.2924 29.8762
ltoes -31.8264
1080
root -1.74626 14.2559 12.395 8.28324 31.7528 10.2472
lowerback 12.7913 3.04741 -13.7603
upperback -1.12277 1.88554 -0.350199
thorax -8.93845 1.56914 6.99823
lowerneck 0.938237 -11.9626 -13.7393
upperneck 6.07203 -16.3982 8.80252
head 3.51346 -8.26194 4.10007
rclavicle 1.55648e-013 -4.53229e-014
rhumerus -1.28095 11.0691 -58.0941
rradius 35.0652
rwrist 15.7897
rhand -17.5675 -12.3051
rfingers 7.12502
rthumb 8.68775 -42.1064
lclavicle 1.55648e-013 -4.53229e-014
lhumerus -71.4047 -17.1402 102.972
lradius 103.646
lwrist 47.1599
lhand 3.18932 40.5775
lfingers 7.12502
lthumb 28.6414 68.4024
rfemur -58.356 -27.4735 4.93499
rtibia 70.9815
rfoot -9.966 10.701
rtoes 0.698822
lfemur 12.1342 6.85402 -9.36065
ltibia 30.5557
lfoot -15.3004 30.1109
ltoes -31.4841
1081
root -1.74609 14.268 12.3574 7.91998 31.3922 10.0511
lowerback 12.8365 3.12252 -13.6801
upperback -1.08642 1.99799 -0.290718
thorax -8.9481 1.61964 6.99389
lowerneck 0.865973 -11.9025 -13.6633
upperneck 5.85305 -16.2964 8.75587
head 3.43723 -8.20827 4.08671
rclavicle -3.57315e-014 -1.78906e-014
rhumerus -1.09155 11.0266 -58.2364
rradius 34.6043
rwrist 16.4085
rhand -17.9392 -12.194
rfingers 7.12502
rthumb 8.32901 -42.0098
lclavicle -3.57315e-014 -1.78906e-014
lhumerus -71.1692 -17.1988 103.126
lradius 103.462
lwrist 46.7977
lhand 3.43949 40.8567
lfingers 7.12502
lthumb 28.8804 68.641
rfemur -57.9263 -26.9163 4.86086
rtibia 70.3631
rfoot -9.36075 11.3069
rtoes 2.32365
lfemur 12.3667 6.89116 -9.42938
ltibia 30.6328
lfoot -15.3215 30.3121
ltoes -31.2001
1082
root -1.74529 14.28 12.3231 7.55354 31.087 9.78491
lowerback 12.8976 3.15871 -13.4854
upperback -1.06044 2.07357 -0.230091
thorax -8.96438 1.64784 6.93396
lowerneck 0.787552 -11.8383 -13.5613
upperneck 5.63315 -16.189 8.71084
head 3.35932 -8.15114 4.07034
rclavicle 3.77691e-014 1.19271e-015
rhumerus -0.881592 11.0131 -58.3989
rradius 34.1523
rwrist 16.805
rhand -18.2386 -12.0855
rfingers 7.12502
rthumb 8.04008 -41.9125
lclavicle 3.77691e-014 1.19271e-015
lhumerus -71.028 -17.2289 103.269
lradius 103.359
lwrist 46.5497
lhand 3.45697 41.1572
lfingers 7.12502
lthumb 28.8971 68.9386
rfemur -57.5451 -26.4435 4.93456
rtibia 69.6917
rfoot -8.80917 11.6699
rtoes 3.46258
lfemur 12.5665 6.93417 -9.39273
ltibia 30.7137
lfoot -15.3562 30.4752
ltoes -30.9712
1083
root -1.74383 14.2919 12.2923 7.2072 30.8347 9.47987
lowerback 12.9586 3.16312 -13.2092
upperback -1.04502 2.11892 -0.174994
thorax -8.9809 1.65795 6.8284
lowerneck 0.704767 -11.7773 -13.4479
upperneck 5.4279 -16.0878 8.6841
head 3.28806 -8.09646 4.05646
rclavicle -2.34069e-014 2.10712e-014
rhumerus -0.668594 10.9861 -58.5796
rradius 33.728
rwrist 17.0242
rhand -18.4389 -12.0036
rfingers 7.12502
rthumb 7.84673 -41.838
lclavicle -2.34069e-014 2.10712e-014
lhumerus -70.9664 -17.2502 103.382
lradius 103.31
lwrist 46.3825
lhand 3.41595 41.4621
lfingers 7.12502
lthumb 28.858 69.2502
rfemur -57.2391 -26.0994 5.14273
rtibia 69.0414
rfoot -8.31414 11.8289
rtoes 4.25126
lfemur 12.7295 6.98467 -9.28146
ltibia 30.7936
lfoot -15.4084 30.5986
ltoes -30.7785
1084
root -1.74197 14.3038 12.2655 6.90903 30.6271 9.17425
lowerback 12.9989 3.14519 -12.8969
upperback -1.04155 2.14199 -0.131906
thorax -8.99143 1.65548 6.69429
lowerneck 0.615542 -11.7262 -13.3342
upperneck 5.25413 -16.0022 8.67885
head 3.231 -8.04911 4.04609
rclavicle 4.97459e-014 7.55382e-015
rhumerus -0.464169 10.9301 -58.7678
rradius 33.3394
rwrist 17.1416
rhand -18.5382 -11.9588
rfingers 7.12502
rthumb 7.75093 -41.7967
lclavicle 4.97459e-014 7.55382e-015
lhumerus -70.956 -17.2803 103.459
lradius 103.263
lwrist 46.2365
lhand 3.46484 41.6762
lfingers 7.12502
lthumb 28.9047 69.4563
rfemur -57.0331 -25.8991 5.45118
rtibia 68.4748
rfoot -7.85112 11.856
rtoes 4.85959
lfemur 12.8495 7.05289 -9.13243
ltibia 30.8639
lfoot -15.4689 30.679
ltoes -30.6152
1085
root -1.74056 14.3151 12.2428 6.67585 30.4517 8.89992
lowerback 13.0092 3.11574 -12.5952
upperback -1.05192 2.15079 -0.101919
thorax -8.99695 1.64664 6.55515
lowerneck 0.521838 -11.6906 -13.2095
upperneck 5.11849 -15.9379 8.659
head 3.18656 -8.01255 4.02668
rclavicle 4.7112e-014 -1.51076e-014
rhumerus -0.284101 10.8428 -58.9545
rradius 32.9963
rwrist 17.2406
rhand -18.5418 -11.9603
rfingers 7.12502
rthumb 7.74741 -41.7984
lclavicle 4.7112e-014 -1.51076e-014
lhumerus -70.9774 -17.3259 103.498
lradius 103.184
lwrist 46.0724
lhand 3.65342 41.7946
lfingers 7.12502
lthumb 29.0848 69.5437
rfemur -56.9317 -25.8222 5.80988
rtibia 68.0309
rfoot -7.4525 11.8292
rtoes 5.44771
lfemur 12.9251 7.14761 -8.97489
ltibia 30.9223
lfoot -15.5399 30.7123
ltoes -30.4672
1086
root -1.74025 14.325 12.2248 6.51876 30.303 8.6847
lowerback 12.9835 3.08257 -12.3422
upperback -1.07538 2.1503 -0.0852067
thorax -8.9962 1.63556 6.43132
lowerneck 0.439904 -11.6616 -13.1074
upperneck 5.01101 -15.8862 8.65685
head 3.15343 -7.98269 4.01438
rclavicle -3.34455e-014 1.66979e-014
rhumerus -0.137809 10.7329 -59.1297
rradius 32.7042
rwrist 17.3522
rhand -18.4661 -12.0036
rfingers 7.12502
rthumb 7.82048 -41.839
lclavicle -3.34455e-014 1.66979e-014
lhumerus -71.0186 -17.3923 103.51
lradius 103.06
lwrist 45.9163
lhand 3.95896 41.8322
lfingers 7.12502
lthumb 29.3765 69.5305
rfemur -56.9197 -25.8364 6.16004
rtibia 67.714
rfoot -7.12952 11.8123
rtoes 6.07795
lfemur 12.9569 7.27194 -8.83285
ltibia 30.9707
lfoot -15.6213 30.6955
ltoes -30.3253
